# xmcd
#
# Track frame offsets:
# 150
# 12845
# 31327
# 67315
# 95867
# 114897
# 133822
# 147032
# 166860
# 178725
# 201850
# 221160
# 233465
# 250892
#
# Disc length: 3835 seconds
#
# Revision: 4
# Processed by: cddbd v1.5.2PL0 Copyright (c) Steve Scherf et al.
# Submitted via: Axialis_AX_CDPlayer 2.6
#
DISCID=c80ef90e
DTITLE=Breakout - Najwieksze przeboje  CD2
DYEAR=1900
DGENRE=
TTITLE0=Pomaluj moje sny
TTITLE1=Usta me ogrzej
TTITLE2=Gdybym byl wichrem
TTITLE3=Co stalo sie kwiatom
TTITLE4=Dzisiejszej nocy
TTITLE5=Daje ci prog
TTITLE6=Takie moje miasto jest
TTITLE7=Noca puka ktos
TTITLE8=Powiedzmy to
TTITLE9=Rzeka dziecinstwa
TTITLE10=Jest gdzies ten dom
TTITLE11=Sliska dzisiaj droga
TTITLE12=Zaprowadzic ciebie musze tam
TTITLE13=Karate
EXTD=
EXTT0=
EXTT1=
EXTT2=
EXTT3=
EXTT4=
EXTT5=
EXTT6=
EXTT7=
EXTT8=
EXTT9=
EXTT10=
EXTT11=
EXTT12=
EXTT13=
PLAYORDER=
